<?xml version="1.0" encoding="utf-8"?>
<!-- Generator: Adobe Illustrator 24.3.0, SVG Export Plug-In . SVG Version: 6.00 Build 0)  -->
<svg version="1.1" id="Layer_1" xmlns="http://www.w3.org/2000/svg" xmlns:xlink="http://www.w3.org/1999/xlink" x="0px" y="0px"
	 viewBox="0 0 122.9 122.9" style="enable-background:new 0 0 122.9 122.9;" xml:space="preserve">
<style type="text/css">
	.st0{fill-rule:evenodd;clip-rule:evenodd;fill:url(#SVGID_1_);}
</style>
<g id="Layer_1-2">
	
		<linearGradient id="SVGID_1_" gradientUnits="userSpaceOnUse" x1="4.8093" y1="62.56" x2="118.0709" y2="62.56" gradientTransform="matrix(1 0 0 -1 0 124)">
		<stop  offset="0" style="stop-color:#E11E25"/>
		<stop  offset="1" style="stop-color:#C71F25"/>
	</linearGradient>
	<path class="st0" d="M53.9,76.4l3.9,3.9l2,2l2-2l7.8-7.8l-2-2l-7.8,7.8l-3.9-3.9C55.9,74.4,53.9,76.4,53.9,76.4z M90,41.4h-7.4v2.3
		H90C90,43.7,90,41.4,90,41.4z M34,38.6c2.2,0,4,1.8,4,4c0,2.2-1.8,4-4,4c-2.2,0-4-1.8-4-4c0-1.1,0.4-2.1,1.2-2.8
		C31.9,39,32.9,38.6,34,38.6z M34.8,41.8c-0.4-0.4-1.2-0.4-1.6,0c-0.4,0.4-0.4,1.2,0,1.6c0.4,0.4,1.2,0.4,1.6,0
		c0.2-0.2,0.3-0.5,0.3-0.8C35.1,42.3,35,42,34.8,41.8z M43.6,38.6c2.2,0,4,1.8,4,4c0,2.2-1.8,4-4,4c-2.2,0-4-1.8-4-4
		c0-1.1,0.4-2.1,1.2-2.8C41.5,39,42.5,38.6,43.6,38.6z M44.4,41.8c-0.4-0.4-1.2-0.4-1.6,0c-0.4,0.4-0.4,1.2,0,1.6
		c0.4,0.4,1.2,0.4,1.6,0c0.2-0.2,0.3-0.5,0.3-0.8C44.7,42.3,44.6,42,44.4,41.8z M53.2,38.6c2.2,0,4,1.8,4,4c0,2.2-1.8,4-4,4
		c-2.2,0-4-1.8-4-4c0-1.1,0.4-2.1,1.2-2.8C51.1,39,52.1,38.6,53.2,38.6z M54,41.8c-0.4-0.4-1.2-0.4-1.6,0c-0.4,0.4-0.4,1.2,0,1.6
		c0.4,0.4,1.2,0.4,1.6,0c0.2-0.2,0.3-0.5,0.3-0.8C54.3,42.3,54.2,42,54,41.8z M74.9,41.4h-7.4v2.3h7.4
		C74.9,43.7,74.9,41.4,74.9,41.4z M66.1,38.6h11.6v7.9H64.7v-7.9L66.1,38.6z M81.2,38.6h11.6v7.9H79.8v-7.9L81.2,38.6z M95.9,27
		c-1.4-1.4-1.4-3.7,0-5.2l0,0c1.4-1.4,3.7-1.4,5.2,0l0,0c1.4,1.4,1.4,3.7,0,5.2S97.3,28.4,95.9,27z M109,58.9c1.4-1.4,3.7-1.4,5.2,0
		v0c1.4,1.4,1.4,3.7,0,5.2l0,0c-1.4,1.4-3.7,1.4-5.2,0C107.6,62.6,107.6,60.3,109,58.9C109,58.9,109,58.9,109,58.9z M95.9,95.9
		c1.4-1.4,3.7-1.4,5.2,0s1.4,3.7,0,5.2l0,0c-1.4,1.4-3.7,1.4-5.2,0l0,0C94.5,99.6,94.5,97.3,95.9,95.9
		C95.9,95.9,95.9,95.9,95.9,95.9z M27,95.9c1.4,1.4,1.4,3.7,0,5.2l0,0c-1.4,1.4-3.7,1.4-5.2,0c-1.4-1.4-1.4-3.7,0-5.2
		S25.6,94.5,27,95.9C27,95.9,27,95.9,27,95.9C27,95.9,27,95.9,27,95.9z M13.9,64L13.9,64c-1.4,1.4-3.7,1.4-5.2,0
		c-1.4-1.4-1.4-3.7,0-5.2l0,0c1.4-1.4,3.7-1.4,5.2,0v0C15.3,60.3,15.3,62.6,13.9,64z M95,48.5h-67V36.6h67C95,36.6,95,48.5,95,48.5z
		 M31.7,33.8l-3.9-3.9c-3,1.9-7,1-9-2s-1-7,2-9c2.6-1.6,5.9-1.3,8.1,0.9l0,0c2.1,2.1,2.5,5.5,0.9,8.1l5.9,5.9h51.4l5.9-5.9
		c-1.6-2.6-1.3-5.9,0.9-8.1v0c2.5-2.5,6.6-2.5,9.2,0c0,0,0,0,0,0h0c2.5,2.5,2.5,6.6,0,9.2c-2.1,2.1-5.5,2.5-8.1,0.9l-3.9,3.9h6.7V60
		h7.5c0.3-1.2,0.9-2.3,1.7-3.2h0c2.5-2.5,6.6-2.5,9.2,0c0,0,0,0,0,0l0,0c2.5,2.5,2.5,6.6,0,9.2c0,0,0,0,0,0v0
		c-2.5,2.5-6.6,2.5-9.2,0c0,0,0,0,0,0l0,0c-0.9-0.9-1.5-2-1.7-3.2h-7.5v26.3h-6.7L95,93c3-1.9,7-1,9,2c1.6,2.6,1.3,5.9-0.9,8.1h0
		c-2.5,2.5-6.6,2.5-9.2,0c0,0,0,0,0,0l0,0c-2.1-2.1-2.5-5.5-0.9-8.1l-5.9-5.9H76.3c-0.3,0.2-0.6,0.4-0.9,0.6l-13.9,8.1l-13.9-8.1
		c-0.3-0.2-0.6-0.4-0.9-0.6H35.8L29.9,95c1.6,2.6,1.3,5.9-0.9,8.1v0c-2.5,2.5-6.6,2.5-9.2,0s-2.5-6.6,0-9.2c2.1-2.1,5.5-2.5,8.1-0.9
		l3.9-3.9h-6.7V62.9h-7.5c-0.3,1.2-0.9,2.3-1.7,3.2v0c-2.5,2.5-6.6,2.5-9.2,0c0,0,0,0,0,0l0,0c-2.5-2.5-2.5-6.6,0-9.2c0,0,0,0,0,0h0
		c2.5-2.5,6.6-2.5,9.2,0c0,0,0,0,0,0l0,0c0.9,0.9,1.5,2,1.7,3.2h7.5V33.8C25.1,33.8,31.7,33.8,31.7,33.8z M44.5,86.3H27.9V51.3
		c22.3,0,44.7,0,67,0v34.9H78.5c0.5-1.2,0.8-2.6,0.8-3.9V60.1h-1.4c-2.9,0-5.8-0.5-8.5-1.5c-2.6-0.9-4.9-2.3-6.9-4.1l-1-0.9l-1,0.9
		c-2,1.8-4.4,3.2-6.9,4.1c-2.7,1-5.6,1.5-8.5,1.5h-1.4v22.3C43.7,83.7,43.9,85,44.5,86.3L44.5,86.3z M27,27c1.4-1.4,1.4-3.7,0-5.2
		l0,0c-1.4-1.4-3.7-1.4-5.2,0s-1.4,3.7,0,5.2C23.3,28.4,25.6,28.4,27,27z M51.9,67.7c1.6-0.3,3.2-0.8,4.7-1.3
		c1.7-0.6,3.3-1.4,4.9-2.3c1.5,0.9,3.2,1.7,4.9,2.3c1.5,0.6,3.1,1,4.7,1.3v13.8c0,0.3,0,0.5-0.1,0.8v0c0,0.1,0,0.2-0.1,0.4l-9.4,5.5
		l-9.4-5.5c0-0.1-0.1-0.2-0.1-0.4c0-0.3-0.1-0.5-0.1-0.8C51.9,81.5,51.9,67.7,51.9,67.7z M49.5,83.9c-0.3-0.7-0.4-1.5-0.4-2.3V65.3
		c4.4-0.5,8.7-2.1,12.4-4.5c3.7,2.4,8,4,12.4,4.5v16.2c0,0.8-0.1,1.6-0.4,2.3c-0.2,0.5-0.6,0.9-1.1,1.2l-10.9,6.3l-10.9-6.3
		C50.1,84.8,49.7,84.4,49.5,83.9L49.5,83.9z M46.5,62.9c2.7-0.1,5.4-0.7,8-1.6c2.5-0.9,4.8-2.2,6.9-3.9c2.1,1.7,4.4,3,6.9,3.9
		c2.6,0.9,5.3,1.5,8,1.6v19.5c0,1-0.2,2-0.5,2.9c-0.4,0.9-1.1,1.6-1.9,2.1l-12.5,7.3L49,87.3c-0.8-0.5-1.5-1.2-1.9-2.1
		c-0.4-0.9-0.6-1.9-0.5-2.9V62.9z"/>
</g>
</svg>
