<?xml version="1.0" encoding="utf-8"?>
<!-- Generator: Adobe Illustrator 24.3.0, SVG Export Plug-In . SVG Version: 6.00 Build 0)  -->
<svg version="1.1" id="Layer_1" xmlns="http://www.w3.org/2000/svg" xmlns:xlink="http://www.w3.org/1999/xlink" x="0px" y="0px"
	 viewBox="0 0 122.9 122.9" style="enable-background:new 0 0 122.9 122.9;" xml:space="preserve">
<style type="text/css">
	.st0{fill-rule:evenodd;clip-rule:evenodd;fill:url(#SVGID_1_);}
</style>
<g id="Layer_1-15">
	
		<linearGradient id="SVGID_1_" gradientUnits="userSpaceOnUse" x1="15.792" y1="62.5597" x2="107.0745" y2="62.5597" gradientTransform="matrix(1 0 0 -1 0 124)">
		<stop  offset="0" style="stop-color:#E11E25"/>
		<stop  offset="1" style="stop-color:#C71F25"/>
	</linearGradient>
	<path class="st0" d="M39.9,28.4V14.1c0-5.7,4.6-10.3,10.3-10.3h46.6c5.7,0,10.3,4.6,10.3,10.3v94.7c0,5.7-4.6,10.3-10.3,10.3H50.2
		c-5.7,0-10.3-4.6-10.3-10.3V95.6h2.8v8.3h61.5V19.1H42.7v9.4H39.9z M56.6,44.5l-2-2c-10.4,10.4-10.5,27.4,0,37.8c0,0,0,0,0,0l2-2
		C47.2,69,47.2,53.9,56.6,44.5C56.5,44.6,56.5,44.5,56.6,44.5z M45.6,33.6l-2-2c-16.5,16.5-16.5,43.2,0,59.7c0,0,0,0,0,0l2-2
		C30.3,73.9,30.2,49,45.6,33.6C45.6,33.6,45.6,33.6,45.6,33.6z M32.7,102.2c-22.5-22.5-22.5-59,0-81.5c0,0,0,0,0,0l2,2
		c-21.4,21.4-21.5,56-0.1,77.5c0,0,0.1,0.1,0.1,0.1L32.7,102.2z M65.5,110.3v2.8h15.9v-2.8H65.5z M42.7,106.7v2.2
		c0,4.1,3.3,7.4,7.5,7.5h46.6c4.1,0,7.4-3.3,7.5-7.5v-2.2H42.7z M65.5,9.8v2.8h15.9V9.8H65.5z M104.2,16.2v-2.2
		c0-4.1-3.3-7.4-7.5-7.5H50.2c-4.1,0-7.4,3.3-7.5,7.5v2.2H104.2z"/>
</g>
</svg>
