<?xml version="1.0" encoding="utf-8"?>
<!-- Generator: Adobe Illustrator 24.3.0, SVG Export Plug-In . SVG Version: 6.00 Build 0)  -->
<svg version="1.1" id="Layer_1" xmlns="http://www.w3.org/2000/svg" xmlns:xlink="http://www.w3.org/1999/xlink" x="0px" y="0px"
	 viewBox="0 0 122.9 122.9" style="enable-background:new 0 0 122.9 122.9;" xml:space="preserve">
<style type="text/css">
	.st0{fill-rule:evenodd;clip-rule:evenodd;fill:url(#SVGID_1_);}
</style>
<g id="Layer_1-11">
	
		<linearGradient id="SVGID_1_" gradientUnits="userSpaceOnUse" x1="6.7419" y1="62.5599" x2="116.1379" y2="62.5599" gradientTransform="matrix(1 0 0 -1 0 124)">
		<stop  offset="0" style="stop-color:#E11E25"/>
		<stop  offset="1" style="stop-color:#C71F25"/>
	</linearGradient>
	<path class="st0" d="M18.9,88.4c-2-2.1-3.6-4.6-4.4-7.4c-0.8-2.7-1.3-5.5-1.2-8.3V19.3h1.4c8.6,0,17.1-1.5,25.2-4.4
		c7.6-2.7,14.7-7,20.7-12.4l1-0.9l1,0.9c6,5.4,13,9.7,20.7,12.4c8.1,2.9,16.6,4.4,25.2,4.4h1.4v32.4h-2.8V22.1
		C98.4,22,90,20.5,82.1,17.6c-7.6-2.7-14.6-6.8-20.7-12.1c-6.1,5.3-13.1,9.4-20.7,12.1c-7.9,2.9-16.3,4.4-24.7,4.5v50.5
		c0,2.5,0.3,5.1,1.1,7.5c0.7,2.4,2,4.5,3.8,6.3L18.9,88.4L18.9,88.4z M6.7,118.4v2.8h109.4v-2.8h-6.5V56l-2.4,2.2
		c-1.9,1.8-3.9,3.5-6,5.2c-2.1,1.7-4.3,3.3-6.5,4.8l-0.6,0.4c0,16.6,0,33.2,0,49.8H82.7V75.6l-2.1,1.1c-2,1-4,2-6.2,3
		c-2.1,0.9-4.2,1.8-6.4,2.7l-0.9,0.4l0,35.8H55.7V86.5l-1.8,0.5c-2.1,0.6-4.2,1.1-6.2,1.5c-2,0.5-4.1,0.9-6.3,1.3L40.2,90v28.4H28.7
		V91.5l-1.5,0.1c-2.1,0.2-4.2,0.3-6.3,0.4c-2,0.1-4.1,0.1-6.3,0.1h-1.4v26.3L6.7,118.4z M25.9,118.4h-9.8V94.9c1.6,0,3.3-0.1,5-0.1
		c1.7-0.1,3.3-0.2,4.8-0.3C25.9,94.5,25.9,118.4,25.9,118.4z M48.3,91.3c1.6-0.4,3.1-0.7,4.6-1.1v28.3H43V92.3
		C44.8,92,46.5,91.7,48.3,91.3z M75.6,82.2c-1.9,0.8-3.7,1.6-5.6,2.4v33.9h9.8V80.2C78.4,80.9,77,81.6,75.6,82.2L75.6,82.2z
		 M103,65.6c-1.9,1.5-3.9,3-6,4.5v48.3h9.8v-56C105.6,63.5,104.3,64.5,103,65.6z M80.1,41.4l-1-1L56.6,62.9L45.4,51.6l-7.6,7.6
		l18.8,18.8L86.7,48L80.1,41.4z M82.7,48l-3.6-3.6L56.6,66.9L45.4,55.7l-3.6,3.6l14.8,14.8C56.6,74.1,82.7,48,82.7,48z M95.5,61.3
		h2.8V28l-1.2-0.2c-6.3-0.8-12.5-2.3-18.5-4.5c-5.8-2.1-11.3-4.9-16.4-8.3l-0.8-0.5l-0.8,0.5c-5.1,3.4-10.6,6.2-16.4,8.3
		c-6,2.2-12.2,3.7-18.5,4.5L24.6,28v44.7c0,1.3,0.1,2.5,0.3,3.8c0.2,1.2,0.5,2.4,1,3.5c0.4,0.8,0.9,1.6,1.5,2.3
		c0.6,0.7,1.3,1.3,2.1,1.7l5.5,3.2l1.4-2.4l-5.5-3.2c-0.5-0.3-1-0.7-1.4-1.2c-0.4-0.5-0.8-1-1-1.6c-0.4-0.9-0.7-1.8-0.8-2.8
		c-0.2-1.1-0.3-2.2-0.3-3.3V30.4c6.1-0.8,12.1-2.3,17.9-4.4c5.7-2.1,11.1-4.8,16.2-8c5.1,3.3,10.5,6,16.2,8
		c5.8,2.1,11.8,3.6,17.9,4.4L95.5,61.3z"/>
</g>
</svg>
