<?xml version="1.0" encoding="utf-8"?>
<!-- Generator: Adobe Illustrator 24.3.0, SVG Export Plug-In . SVG Version: 6.00 Build 0)  -->
<svg version="1.1" id="Layer_1" xmlns="http://www.w3.org/2000/svg" xmlns:xlink="http://www.w3.org/1999/xlink" x="0px" y="0px"
	 viewBox="0 0 122.9 122.9" style="enable-background:new 0 0 122.9 122.9;" xml:space="preserve">
<style type="text/css">
	.st0{fill-rule:evenodd;clip-rule:evenodd;fill:url(#SVGID_1_);}
</style>
<g id="Layer_1-16">
	
		<linearGradient id="SVGID_1_" gradientUnits="userSpaceOnUse" x1="18.8983" y1="62.5597" x2="103.9816" y2="62.5597" gradientTransform="matrix(1 0 0 -1 0 124)">
		<stop  offset="0" style="stop-color:#E11E25"/>
		<stop  offset="1" style="stop-color:#C71F25"/>
	</linearGradient>
	<path class="st0" d="M86.1,88.7v20.1c0,5.7-4.6,10.3-10.3,10.3H29.2c-5.7,0-10.3-4.6-10.3-10.3V14.1c0-5.7,4.6-10.3,10.3-10.3h46.6
		c5.7,0,10.3,4.6,10.3,10.3v20.1h-2.8V19.1H21.7v84.8h61.5V88.7H86.1z M39.6,80.9L59,61.4L39.6,42V80.9z M61,63.4L41.6,82.9h57.5
		L79.7,63.4l-3.8,3.8c-3.1,3.1-8,3.1-11.1,0L61,63.4L61,63.4z M81.7,61.4l19.4,19.4V42L81.7,61.4z M41.6,40l25.2,25.2
		c2,2,5.1,2,7.1,0L99.1,40H41.6z M38.2,37.2h-1.4v48.5H104V37.2L38.2,37.2z M44.5,110.3v2.8h15.9v-2.8H44.5z M21.7,106.7v2.2
		c0,4.1,3.3,7.4,7.5,7.5h46.6c4.1,0,7.4-3.3,7.5-7.5v-2.2H21.7z M44.5,9.8v2.8h15.9V9.8H44.5z M83.3,16.2v-2.2
		c0-4.1-3.3-7.4-7.5-7.5H29.2c-4.1,0-7.4,3.3-7.5,7.5v2.2H83.3z"/>
</g>
</svg>
