<?xml version="1.0" encoding="utf-8"?>
<!-- Generator: Adobe Illustrator 24.3.0, SVG Export Plug-In . SVG Version: 6.00 Build 0)  -->
<svg version="1.1" id="Layer_1" xmlns="http://www.w3.org/2000/svg" xmlns:xlink="http://www.w3.org/1999/xlink" x="0px" y="0px"
	 viewBox="0 0 122.9 122.9" style="enable-background:new 0 0 122.9 122.9;" xml:space="preserve">
<style type="text/css">
	.st0{fill-rule:evenodd;clip-rule:evenodd;fill:url(#SVGID_1_);}
</style>
<g id="Layer_1-24">
	
		<linearGradient id="SVGID_1_" gradientUnits="userSpaceOnUse" x1="3.6194" y1="62.5548" x2="119.2556" y2="62.5548" gradientTransform="matrix(1 0 0 -1 0 124)">
		<stop  offset="0" style="stop-color:#E11E25"/>
		<stop  offset="1" style="stop-color:#C71F25"/>
	</linearGradient>
	<path class="st0" d="M61.4,86.9L79,76.6c0.2-0.1,0.3-0.2,0.4-0.4c0.1-0.2,0.3-0.3,0.3-0.5c0.2-0.4,0.3-0.8,0.4-1.3
		c0.1-0.6,0.1-1.1,0.1-1.7V46.9c-3.3-0.5-6.5-1.4-9.7-2.5c-3.2-1.2-6.3-2.7-9.2-4.4c-2.9,1.8-6,3.3-9.2,4.4c-3.1,1.1-6.4,2-9.7,2.5
		v25.9c0,0.6,0,1.2,0.1,1.7c0.1,0.4,0.2,0.9,0.4,1.3c0.1,0.2,0.2,0.4,0.3,0.5c0.1,0.1,0.3,0.3,0.4,0.4L61.4,86.9L61.4,86.9z
		 M73.7,57L58.5,72.2l-8.4-8.4l1.6-1.6l6.8,6.8l13.6-13.6L73.7,57z M73,52.7l4.3,4.3L58.5,75.9l-12-12l5.2-5.2l6.8,6.8l13.6-13.6
		C72.1,51.8,73,52.7,73,52.7z M61.4,89.9l-18.9-11c-0.8-0.5-1.5-1.2-1.8-2.1c-0.5-1.3-0.8-2.7-0.7-4.1V44.6c7.7-0.9,15-3.6,21.5-7.8
		c6.5,4.2,13.8,6.9,21.5,7.8v28.1c0,1.4-0.2,2.8-0.7,4.1c-0.4,0.9-1,1.6-1.8,2.1C80.3,78.9,61.4,89.9,61.4,89.9z M61.4,96.7
		L39.2,83.8c-1.7-0.9-3-2.4-3.8-4.1c-0.7-1.7-1.1-3.6-1-5.4V39.3c5-0.1,10-1.1,14.7-2.8c4.5-1.6,8.7-4.1,12.4-7.2
		c3.7,3.1,7.8,5.5,12.4,7.2c4.7,1.7,9.7,2.6,14.7,2.8v34.9c0,1.9-0.3,3.7-1,5.4c-0.8,1.7-2.1,3.2-3.8,4.1
		C83.7,83.8,61.4,96.7,61.4,96.7z M85,86L61.4,99.7L37.9,86c-2.1-1.2-3.8-3-4.8-5.3c-0.9-2.1-1.3-4.3-1.3-6.5V36.7h1.3
		c5.1,0,10.2-0.9,15.1-2.6c4.6-1.6,8.8-4.2,12.4-7.4l0.9-0.8l0.9,0.8c3.6,3.3,7.8,5.8,12.4,7.4c4.8,1.8,9.9,2.6,15.1,2.6h1.3v37.5
		c0,2.2-0.4,4.5-1.3,6.5C88.8,83,87.1,84.8,85,86z M96.6,107.3c-25.3,19.5-61.6,14.7-81-10.6C-1.2,74.9-0.2,44.2,17.9,23.5h-6.8
		v-2.6h12.3v12.3h-2.6V24C0.2,46.4,1.6,81.4,24,102c19.7,18.2,49.7,19.6,71.1,3.2C95,105.2,96.6,107.3,96.6,107.3z M102,89.7v9.2
		c20.7-22.4,19.3-57.3-3.1-78C79.2,2.6,49.1,1.3,27.8,17.7l-1.6-2.1c25.3-19.5,61.6-14.7,81,10.6c16.8,21.8,15.8,52.5-2.3,73.2h6.8
		v2.6H99.4V89.7L102,89.7z"/>
</g>
</svg>
