<?xml version="1.0" encoding="utf-8"?>
<!-- Generator: Adobe Illustrator 24.3.0, SVG Export Plug-In . SVG Version: 6.00 Build 0)  -->
<svg version="1.1" id="Layer_1" xmlns="http://www.w3.org/2000/svg" xmlns:xlink="http://www.w3.org/1999/xlink" x="0px" y="0px"
	 viewBox="0 0 122.9 122.9" style="enable-background:new 0 0 122.9 122.9;" xml:space="preserve">
<style type="text/css">
	.st0{fill-rule:evenodd;clip-rule:evenodd;fill:url(#SVGID_1_);}
</style>
<g id="Layer_1-6">
	
		<linearGradient id="SVGID_1_" gradientUnits="userSpaceOnUse" x1="8.330165e-03" y1="62.56" x2="122.8857" y2="62.56" gradientTransform="matrix(1 0 0 -1 0 124)">
		<stop  offset="0" style="stop-color:#E11E25"/>
		<stop  offset="1" style="stop-color:#C71F25"/>
	</linearGradient>
	<path class="st0" d="M104.9,83.9c11.7-4,18-16.7,14-28.4c-2.5-7.4-8.7-12.9-16.3-14.7l-0.9-0.2l-0.2-0.9
		c-2.2-12.2-13.8-20.3-26-18.1c-2.5,0.5-5,1.3-7.2,2.6L67,25l-0.6-1.5C61.8,12,48.7,6.4,37.2,11c-9.7,3.9-15.5,13.9-13.9,24.3
		c0.2,1.1,0.4,2.3,0.8,3.4l0.5,1.7L23,40.4C10.6,41.7,1.7,52.7,2.9,65c1.2,11.4,10.8,20.1,22.3,20.1v2.8C11.3,87.9,0,76.6,0,62.7
		c0-12.3,8.9-22.8,21-24.9c-0.2-0.7-0.3-1.4-0.4-2.2C18.4,21.9,27.8,9,41.6,6.8c1.3-0.2,2.6-0.3,3.9-0.3c9.8,0,18.7,5.7,22.8,14.5
		c12.5-6.1,27.6-1,33.8,11.5c0.9,1.8,1.6,3.8,2,5.8c13.5,3.6,21.5,17.4,17.9,30.9c-2.2,8.2-8.3,14.7-16.3,17.4
		C105.8,86.6,104.9,83.9,104.9,83.9z M60.5,76.1l1-1l-6.4-6.4l-2,2l4.4,4.4l-4.4,4.4l2,2L60.5,76.1z M44.2,82.4l2.7,0.7L51,67.7
		L48.3,67C48.3,67,44.2,82.4,44.2,82.4z M34.7,74.1l-1,1l6.4,6.4l2-2l-4.4-4.4l4.4-4.4l-2-2L34.7,74.1z M83.7,89.7
		c4.5,0,8.1,3.6,8.1,8.1c0,4.5-3.6,8.1-8.1,8.1c-4.5,0-8.1-3.6-8.1-8.1c0-2.1,0.9-4.2,2.4-5.7C79.5,90.6,81.6,89.7,83.7,89.7z
		 M87.4,94.1C85.4,92,82,92,80,94.1s-2.1,5.4,0,7.5c2.1,2.1,5.4,2.1,7.5,0c1-1,1.5-2.3,1.5-3.7C89,96.4,88.4,95.1,87.4,94.1z
		 M63.6,78.8h-2.8v2.9h2.8V78.8z M69.6,78.8h-2.8v2.9h2.8V78.8z M91.3,52.9h-6.7v23.5h-2.8v-14H32.2v37.4h33c0-0.2,0-0.5-0.1-0.8
		c0-0.4,0-0.8,0-1.2c0-0.3,0-0.7,0-1.2c0-0.4,0.1-0.8,0.1-1.2l0.3-2.5h4.3c0.1-0.3,0.2-0.5,0.3-0.8c0.1-0.3,0.2-0.5,0.4-0.8l-3-3
		l1.5-2c0.5-0.6,1-1.2,1.5-1.7l0,0c0.5-0.5,1.1-1.1,1.7-1.5l2-1.5l3,3c0.3-0.1,0.5-0.2,0.8-0.4c0.3-0.1,0.5-0.2,0.8-0.3v-4.3
		l2.5-0.3c0.3,0,0.7-0.1,1.2-0.1c0.4,0,0.8,0,1.2,0c0.3,0,0.7,0,1.2,0c0.4,0,0.8,0.1,1.2,0.1l2.5,0.3V84c0.3,0.1,0.5,0.2,0.8,0.3
		c0.3,0.1,0.5,0.2,0.8,0.4l1.2-1.2C91.3,83.5,91.3,52.9,91.3,52.9z M84.5,50.1h6.7v-9.2H41.7v6.7h42.8V50.1z M66.7,53.5h-2.8v2.9
		h2.8V53.5z M72.6,53.5h-2.8v2.9h2.8V53.5z M78.6,53.5h-2.8v2.9h2.8V53.5z M83.7,82c-0.7,0-1.3,0-2,0.1v4c-1.8,0.3-3.4,1-4.9,2
		L74,85.3c-1,0.8-2,1.7-2.8,2.8l2.8,2.8c-1,1.4-1.7,3.1-2,4.9h-4c-0.2,1.3-0.2,2.6,0,3.9h4c0.3,1.8,1,3.4,2,4.9l-2.8,2.8
		c0.8,1,1.7,2,2.8,2.8l2.8-2.8c1.4,1,3.1,1.7,4.9,2v4c1.3,0.2,2.6,0.2,3.9,0v-4c1.8-0.3,3.4-1,4.9-2l2.8,2.8c1-0.8,2-1.7,2.8-2.8
		l-2.8-2.8c1-1.4,1.7-3.1,2-4.9h4c0.2-1.3,0.2-2.6,0-3.9h-4c-0.3-1.8-1-3.4-2-4.9l2.8-2.8c-0.8-1-1.7-2-2.8-2.8l-2.8,2.8
		c-1.4-1-3.1-1.7-4.9-2v-4C85,82.1,84.4,82,83.7,82z M66.9,102.6h2.9c0.1,0.3,0.2,0.5,0.3,0.8c0.1,0.3,0.2,0.5,0.4,0.8l-3,3l1.5,2
		c1,1.2,2.1,2.3,3.3,3.3l2,1.5l3-3c0.3,0.1,0.5,0.2,0.8,0.4c0.3,0.1,0.5,0.2,0.8,0.3v4.3l2.5,0.3c0.3,0,0.7,0.1,1.2,0.1h0
		c0.4,0,0.8,0,1.2,0c0.3,0,0.7,0,1.2,0h0c0.4,0,0.8-0.1,1.1-0.1l2.5-0.3v-4.3c0.3-0.1,0.5-0.2,0.8-0.3c0.3-0.1,0.5-0.2,0.8-0.4l3,3
		l2-1.5c1.2-1,2.3-2.1,3.3-3.3l1.5-2l-3-3c0.1-0.3,0.2-0.5,0.4-0.8c0.1-0.3,0.2-0.5,0.3-0.8h4.3l0.3-2.5c0-0.3,0.1-0.7,0.1-1.2v0
		c0-0.4,0-0.8,0-1.2s0-0.7,0-1.2v0c0-0.4-0.1-0.8-0.1-1.1l-0.3-2.5h-4.3c-0.1-0.3-0.2-0.5-0.3-0.8c-0.1-0.3-0.2-0.5-0.4-0.8l3-3
		l-1.5-2c-1-1.2-2.1-2.3-3.3-3.3l-1-0.8V38H38.9v9.5h-9.5v55H66.9z M81.7,59.6v-9.2H32.2v9.2H81.7z"/>
</g>
</svg>
