<?xml version="1.0" encoding="utf-8"?>
<!-- Generator: Adobe Illustrator 24.3.0, SVG Export Plug-In . SVG Version: 6.00 Build 0)  -->
<svg version="1.1" id="Layer_1" xmlns="http://www.w3.org/2000/svg" xmlns:xlink="http://www.w3.org/1999/xlink" x="0px" y="0px"
	 viewBox="0 0 122.9 122.9" style="enable-background:new 0 0 122.9 122.9;" xml:space="preserve">
<style type="text/css">
	.st0{fill-rule:evenodd;clip-rule:evenodd;fill:url(#SVGID_1_);}
</style>
<g id="Layer_1-8">
	
		<linearGradient id="SVGID_1_" gradientUnits="userSpaceOnUse" x1="3.0609" y1="62.5601" x2="119.8191" y2="62.5601" gradientTransform="matrix(1 0 0 -1 0 124)">
		<stop  offset="0" style="stop-color:#E11E25"/>
		<stop  offset="1" style="stop-color:#C71F25"/>
	</linearGradient>
	<path class="st0" d="M12,113.7h99l6.1-6.2v-5.1H78l-1.4,1.4l-2,2.1H48.3l-0.4-0.4c-0.3-0.4-1.5-1.6-3.1-3.1H5.9v5.1
		C5.9,107.5,12,113.7,12,113.7z M48.3,6.3c4.6,0,9.1,1.5,12.7,4.3c0.5-0.1,1-0.1,1.5-0.2h0c0.7-0.1,1.4-0.1,2.1-0.1
		c13.5,0,24.7,10.5,25.6,24c0,0.6,0.1,1.1,0.1,1.6c0,0.3,0,0.6,0,1.1c0,0.3,0,0.6,0,0.9c0.1,0.7,0.3,1.3,0.6,1.9
		c0.4,0.7,0.8,1.3,1.4,1.8l2.1,2.1c2.2,2.2,2.2,5.9,0,8.1v0l-1,1c-0.6,0.5-0.9,1.3-0.8,2.1v1.8c0,1.5-0.6,3-1.7,4.1l-1,1v2.8
		c0,1-0.3,2-0.8,2.9l0,0c-0.5,0.9-1.2,1.6-2.1,2.1l-0.4,0.2c-0.9,0.5-1.9,0.8-2.9,0.8h-4.5c-0.8,0-1.5,0.3-2.1,0.9l-0.2,0.2
		c-0.6,0.5-0.9,1.3-0.9,2.1v8.3H43.8v-30h2.8V79h26.7v-5.5c0-1.5,0.6-3,1.7-4.1l0.2-0.2c1.1-1.1,2.5-1.7,4.1-1.7h4.5
		c0.5,0,1-0.1,1.5-0.4l0.4-0.2l0,0c0.4-0.2,0.8-0.6,1.1-1.1v0c0.3-0.4,0.4-0.9,0.4-1.5v-3.9l1.8-1.8c0.6-0.5,0.9-1.3,0.9-2.1v-1.8
		c0-1.5,0.6-3,1.7-4.1l1-1l0,0c1.1-1.1,1.1-3,0-4.1l-2.1-2.1c-0.7-0.7-1.4-1.6-1.9-2.5c-0.5-0.9-0.8-1.9-1-2.9l0-0.3
		c0-0.4,0.1-0.7,0.1-0.9c0-0.2,0-0.6,0-1c0-0.5,0-1,0-1.5c0-0.5-0.1-0.9-0.1-1.4l0-0.1c-1.5-11.4-11.1-19.9-22.6-19.9
		c-0.3,0-0.5,0-0.8,0c7.8,8.6,7.2,21.9-1.4,29.7s-21.9,7.2-29.7-1.4s-7.2-21.9,1.4-29.7C38,8.3,43.1,6.3,48.3,6.3z M40.5,22.5H39
		v15.7h18.7V22.5h-2.3v-1.8c0-1.8-0.7-3.6-2-4.9l0,0c-2.7-2.7-7-2.7-9.7,0c0,0,0,0,0,0l0,0c-1.3,1.3-2,3-2,4.9v1.8H40.5z M48.4,27.4
		c-1.2,0-2.2,1-2.2,2.2c0,0.8,0.4,1.5,1.1,1.9v1.7h2.2v-1.7c1.1-0.6,1.4-2,0.8-3C49.9,27.8,49.2,27.4,48.4,27.4z M44.4,22.5h8.2
		v-1.8c0-1.1-0.4-2.1-1.2-2.9l0,0c-1.6-1.6-4.2-1.6-5.8,0c0,0,0,0,0,0l0,0c-0.8,0.8-1.2,1.8-1.2,2.9C44.4,20.7,44.4,22.5,44.4,22.5z
		 M54.9,25.3h-13v10h13V25.3z M61.2,14.5c-7.1-7.1-18.7-7.1-25.8,0s-7.1,18.7,0,25.8s18.7,7.1,25.8,0c3.4-3.4,5.3-8.1,5.3-12.9
		C66.6,22.5,64.7,17.9,61.2,14.5z M12.8,89.9h38.1v2.8H12.8v6.9H46l3.5,3.5h23.9c1.2-1.2,2.3-2.4,3.5-3.5h33.2v-6.9H72v-2.8h38.1
		V39.6c0-1.4-0.6-2.8-1.6-3.7l0,0c-1-1-2.3-1.6-3.7-1.6H93.5v-2.8h11.3c2.2,0,4.2,0.9,5.7,2.4l0,0c1.5,1.5,2.4,3.6,2.4,5.7v60h6.9
		v8.5l-0.4,1l-7.3,7.5H10.8l-7.3-7.5l-0.4-1v-8.5H10v-60c0-4.5,3.6-8.1,8.1-8.1h6.6v2.8h-6.6c-2.9,0-5.3,2.4-5.3,5.3
		C12.8,39.6,12.8,89.9,12.8,89.9z M56.9,89.8H54v3h2.8V89.8z M62.9,89.8H60v3h2.8V89.8z M68.9,89.8H66v3h2.8V89.8z"/>
</g>
</svg>
