<?xml version="1.0" encoding="utf-8"?>
<!-- Generator: Adobe Illustrator 24.3.0, SVG Export Plug-In . SVG Version: 6.00 Build 0)  -->
<svg version="1.1" id="Layer_1" xmlns="http://www.w3.org/2000/svg" xmlns:xlink="http://www.w3.org/1999/xlink" x="0px" y="0px"
	 viewBox="0 0 122.9 122.9" style="enable-background:new 0 0 122.9 122.9;" xml:space="preserve">
<style type="text/css">
	.st0{fill-rule:evenodd;clip-rule:evenodd;fill:url(#SVGID_1_);}
</style>
<g id="Layer_1-10">
	
		<linearGradient id="SVGID_1_" gradientUnits="userSpaceOnUse" x1="5.488396e-04" y1="62.5601" x2="122.8797" y2="62.5601" gradientTransform="matrix(1 0 0 -1 0 124)">
		<stop  offset="0" style="stop-color:#E11E25"/>
		<stop  offset="1" style="stop-color:#C71F25"/>
	</linearGradient>
	<path class="st0" d="M81.9,80l-2.5,1.4c-4.6,7.2-10,13.9-16,20c3.6,3.4,7.6,6.4,11.9,8.9c6.1,3.3,11.5,4.2,15.4,2
		c5.3-3.1,7-11.4,5.5-22.5c-0.3-2.1-0.7-4.3-1.2-6.6c-3.3,0.9-6.7,1.6-10.4,2.3l-0.5-2.7c3.6-0.6,7-1.3,10.2-2.2
		c-1.4-5.4-3.3-10.6-5.5-15.7c-0.5,1.1-1,2.1-1.6,3.2v1.7c0,2-0.3,3.9-1.1,5.8C85.3,77.3,83.8,79,81.9,80z M97,79.7
		c-1.7-6.3-3.9-12.4-6.6-18.3c2.7-5.9,4.9-12,6.6-18.3c2.2,0.7,4.4,1.4,6.3,2.2c10.3,4.2,16.7,9.9,16.7,16c0,4.5-3.5,8.8-9.4,12.4
		C106.4,76.3,101.8,78.3,97,79.7L97,79.7z M94.4,42.4c-2.3-0.6-4.6-1.2-7.1-1.7v14.2c0.5,1.1,1.1,2.1,1.6,3.2
		C91.1,53,93,47.8,94.4,42.4z M87.3,38c2.7,0.5,5.3,1.1,7.7,1.8c0.5-2.3,0.9-4.5,1.2-6.6c1.5-11.1-0.2-19.4-5.5-22.5l0,0
		C88,9,84.4,9,80.4,10.3c-4.4,1.5-9.3,4.5-14.4,8.8l-1.8-2.1c5.4-4.6,10.6-7.8,15.3-9.4c4.8-1.6,9.1-1.5,12.6,0.5h0
		c6.4,3.7,8.5,13.1,6.9,25.3c-0.3,2.2-0.7,4.6-1.3,7c2.4,0.7,4.6,1.5,6.7,2.4c11.4,4.6,18.5,11.2,18.5,18.6c0,5.5-4,10.6-10.7,14.7
		c-4.5,2.7-9.4,4.7-14.4,6.2c0.6,2.4,1,4.8,1.3,7c1.7,12.2-0.5,21.6-6.9,25.3h0c-4.8,2.8-11.2,1.9-18.1-1.9
		c-4.6-2.6-8.8-5.8-12.6-9.4c-1.8,1.7-3.6,3.2-5.4,4.6c-9.7,7.5-18.9,10.4-25.3,6.7c-4.8-2.8-7.2-8.7-7.4-16.7
		c-0.2-7.8,1.8-17.7,5.7-28.4l2.6,1c-3.8,10.3-5.8,19.9-5.6,27.4c0.2,7,2.1,12.1,6,14.3c5.3,3.1,13.4,0.4,22.2-6.5
		c1.7-1.3,3.4-2.8,5.1-4.4c-2.4-2.4-4.8-5-7.1-7.8l2.1-1.8c2.3,2.8,4.7,5.4,7,7.7c4.6-4.6,8.7-9.5,12.5-14.8l-12.5,7.3L41,80
		c-1.9-1.1-3.4-2.7-4.3-4.7c-0.8-1.8-1.2-3.8-1.1-5.8V40.8c-5.5,1-10.9,2.6-16.1,4.7c-10.3,4.2-16.7,9.9-16.7,16
		c0,3.2,1.8,6.3,4.9,9.1c3.5,3.1,8.6,5.8,14.9,8.1l-0.9,2.6C15,78.9,9.6,76,5.9,72.6C2.1,69.3,0,65.5,0,61.4
		c0-7.4,7.1-13.9,18.5-18.6C24,40.7,29.7,39,35.6,38v-1h1.4c4.4,0,8.8-0.7,12.9-2.2c3.9-1.4,7.5-3.6,10.6-6.4l0.9-0.9l0.9,0.9
		c2.4,2.2,5.2,4,8.2,5.4C65.8,27.5,60.4,22,54.3,17.1c-8.8-6.8-16.9-9.5-22.2-6.5h0c-2.8,1.6-4.6,4.7-5.4,8.8
		c-0.9,4.5-0.8,10.3,0.4,16.9l-2.7,0.5c-1.3-6.9-1.5-13.1-0.4-18c1-4.9,3.3-8.6,6.8-10.7l0,0c6.4-3.7,15.6-0.9,25.3,6.7
		c7.3,5.9,13.8,12.9,19.3,20.6c3.4,1,7,1.5,10.6,1.5h1.4L87.3,38L87.3,38z M87.3,61.2v0.5l0.1-0.2L87.3,61.2z M62.8,52.6
		c1.3,0.3,2.5,0.9,3.5,1.9l0,0c1,0.9,1.6,2.2,1.9,3.5h9.1V46.4c-2.7-0.5-5.4-1.2-8-2.1c-2.2-0.8-4.3-1.8-6.4-2.9L62.8,52.6
		L62.8,52.6z M80,58v10.4c0,1.2-0.2,2.4-0.6,3.5c-0.3,0.8-0.9,1.4-1.6,1.8l-16.3,9.5l-16.3-9.5c-0.7-0.4-1.3-1-1.6-1.8
		c-0.5-1.1-0.7-2.3-0.6-3.5V44.1c6.6-0.8,13-3.1,18.6-6.8c5.6,3.7,11.9,6,18.6,6.8C80,44.1,80,58,80,58z M77.2,60.7v7.6
		c0,0.5,0,0.9-0.1,1.4c0,0.3-0.1,0.7-0.3,1c-0.1,0.1-0.1,0.2-0.2,0.3l0,0c-0.1,0.1-0.2,0.2-0.3,0.2l-13.6,7.9V66.1
		c1.3-0.3,2.5-0.9,3.5-1.9l0,0c1-0.9,1.6-2.2,1.9-3.5H77.2z M60.1,79.2V66.1c-1.3-0.3-2.5-0.9-3.5-1.9l0,0c-1-0.9-1.6-2.2-1.9-3.5
		h-9v7.6c0,0.5,0,0.9,0.1,1.4c0,0.3,0.1,0.7,0.3,1c0.1,0.1,0.1,0.2,0.2,0.3v0c0.1,0.1,0.2,0.1,0.2,0.2
		C46.5,71.3,60.1,79.2,60.1,79.2z M45.7,58h9c0.3-1.3,0.9-2.5,1.9-3.5l0,0c0.9-1,2.2-1.6,3.5-1.9V41.4c-2.1,1.1-4.2,2.1-6.4,2.9
		c-2.6,0.9-5.3,1.7-8,2.1V58z M64.3,56.4c-1.6-1.6-4.2-1.6-5.8,0l0,0c-1.6,1.6-1.6,4.2,0,5.8l0,0c1.6,1.6,4.2,1.6,5.8,0h0
		C65.9,60.6,65.9,58.1,64.3,56.4L64.3,56.4z M61.4,88.8L42.3,77.6c-1.4-0.8-2.5-2-3.1-3.4c-0.6-1.5-0.9-3-0.9-4.6V39.7
		c4.3-0.1,8.5-0.9,12.5-2.4c3.9-1.4,7.4-3.5,10.6-6.1c3.1,2.6,6.7,4.7,10.6,6.1c4,1.5,8.2,2.3,12.5,2.4v29.9c0,1.6-0.3,3.1-0.9,4.6
		c-0.7,1.4-1.8,2.6-3.1,3.4L61.4,88.8z"/>
</g>
</svg>
