<?xml version="1.0" encoding="utf-8"?>
<!-- Generator: Adobe Illustrator 24.3.0, SVG Export Plug-In . SVG Version: 6.00 Build 0)  -->
<svg version="1.1" id="Layer_1" xmlns="http://www.w3.org/2000/svg" xmlns:xlink="http://www.w3.org/1999/xlink" x="0px" y="0px"
	 viewBox="0 0 122.9 122.9" style="enable-background:new 0 0 122.9 122.9;" xml:space="preserve">
<style type="text/css">
	.st0{fill-rule:evenodd;clip-rule:evenodd;fill:url(#SVGID_1_);}
</style>
<g id="Layer_1-4">
	
		<linearGradient id="SVGID_1_" gradientUnits="userSpaceOnUse" x1="4.825335e-03" y1="62.5693" x2="122.8754" y2="62.5693" gradientTransform="matrix(1 0 0 -1 0 124)">
		<stop  offset="0" style="stop-color:#E11E25"/>
		<stop  offset="1" style="stop-color:#C71F25"/>
	</linearGradient>
	<path class="st0" d="M34.1,93.9c-1-1.7-3.2-2.3-5-1.3s-2.3,3.2-1.3,5c1,1.7,3.2,2.3,5,1.3l0,0C34.5,97.8,35.1,95.6,34.1,93.9z
		 M116.9,75.7c9-10.6,7.7-26.5-2.9-35.6c-2.9-2.4-6.2-4.2-9.9-5.2c-2.9-13.6-16.4-22.3-30-19.3c-2,0.4-4,1.1-5.8,2
		C62.4,5,47.4-0.4,34.8,5.5c-10.2,4.8-16,15.7-14.2,26.8c0.1,0.7,0.3,1.5,0.4,2.2C7.3,36.8-2,49.8,0.4,63.5
		c1.8,10.6,10.2,19,20.8,20.7l1.8,0.3l-0.2-1.8c-0.1-0.8-0.2-1.5-0.2-2.3c0-0.7-0.1-1.5-0.1-2.3c0-0.9,0-1.7,0.1-2.4
		c0-0.4,0.1-0.8,0.1-1.2h10.1l0.2-1.2c0.7-4.3,2.4-8.3,4.9-11.9l0.7-1l-7.2-7.2c0.8-0.9,1.6-1.8,2.4-2.7l0,0
		c0.9-0.9,1.8-1.7,2.7-2.5l7.2,7.2l1-0.7c3.5-2.5,7.6-4.2,11.9-4.9l1.2-0.2V39.4c0.4,0,0.8-0.1,1.2-0.1c0.8,0,1.6-0.1,2.4-0.1
		c0.9,0,1.7,0,2.4,0.1c0.4,0,0.8,0.1,1.2,0.1v10.1l1.2,0.2c4.3,0.7,8.3,2.4,11.9,4.9l1,0.7l7.2-7.2c0.9,0.8,1.8,1.6,2.7,2.5l0,0
		c0.9,0.9,1.7,1.8,2.5,2.7l-7.2,7.2l0.7,1c2.5,3.5,4.2,7.6,4.9,11.9l0.2,1.2h10.1c0,0.4,0.1,0.8,0.1,1.2c0,0.8,0.1,1.6,0.1,2.4
		c0,0.8,0,1.6-0.1,2.3c0,0.8-0.1,1.5-0.2,2.3l-0.2,1.8l1.8-0.3C107.6,83.3,113,80.2,116.9,75.7z M103,81.1l0-0.5
		c0-0.8,0.1-1.7,0.1-2.5c0-0.8,0-1.7-0.1-2.6c-0.1-0.9-0.1-1.8-0.2-2.6l-0.2-1.2H92.4c-0.8-3.9-2.3-7.6-4.5-10.9l7.3-7.3l-0.8-1
		c-1.1-1.4-2.2-2.7-3.5-3.9h0c-1.2-1.2-2.5-2.4-3.9-3.5l-1-0.8l-7.3,7.3c-3.3-2.2-7-3.7-10.9-4.5V36.9l-1.2-0.2
		c-0.8-0.1-1.7-0.2-2.6-0.2c-0.9-0.1-1.8-0.1-2.6-0.1c-0.8,0-1.7,0-2.6,0.1c-0.9,0.1-1.8,0.1-2.6,0.2L55,36.9v10.3
		c-3.9,0.8-7.6,2.3-10.9,4.5l-7.3-7.3l-1,0.8c-1.4,1.1-2.7,2.2-3.9,3.5l0,0c-1.2,1.2-2.4,2.5-3.5,3.9l-0.8,1l7.3,7.3
		c-2.2,3.3-3.7,7-4.5,10.9H20.2l-0.2,1.2c-0.1,0.8-0.2,1.7-0.2,2.6c-0.1,0.9-0.1,1.8-0.1,2.6c0,0.8,0,1.6,0.1,2.5l0,0.5
		C7.8,78.1,0.5,66,3.5,53.9C5.7,44.8,13.5,38,23,37l1.7-0.2l-0.5-1.7c-0.4-1.1-0.6-2.2-0.8-3.4c-0.2-1.1-0.3-2.3-0.3-3.5
		c0-12.4,10-22.4,22.4-22.4c9.2,0,17.5,5.6,20.8,14.2l0.6,1.5l1.4-0.8c10.8-6.1,24.4-2.4,30.6,8.4c1.3,2.2,2.2,4.7,2.6,7.2l0.2,0.9
		l0.9,0.2c12.1,2.7,19.6,14.8,16.9,26.8C117.6,72.6,111.3,79.1,103,81.1z M61.4,66.7c6.3,0,11.4,5.1,11.4,11.4
		c0,6.3-5.1,11.4-11.4,11.4S50,84.4,50,78.1c0-3,1.2-5.9,3.3-8.1C55.5,67.9,58.4,66.7,61.4,66.7z M67.5,72c3.4,3.4,3.4,8.8,0,12.2
		c-3.4,3.4-8.8,3.4-12.2,0c-3.4-3.4-3.4-8.8,0-12.2c1.6-1.6,3.8-2.5,6.1-2.5C63.7,69.5,65.9,70.4,67.5,72z M61.4,56.6
		c11.9,0,21.5,9.6,21.5,21.5c0,3.3-0.8,6.5-2.2,9.5l6.4,3.7c2-2.2,5.4-2.7,8-1.2h0c3.1,1.8,4.1,5.7,2.4,8.8s-5.7,4.1-8.8,2.4
		c-2.6-1.5-3.8-4.6-2.9-7.5L79.3,90c-1.6,2.4-3.6,4.4-5.9,5.9l3.7,6.4c3.4-1.1,7,0.8,8.1,4.2c1.1,3.4-0.8,7-4.2,8.1
		c-3.4,1.1-7-0.8-8.1-4.2c-0.7-2.4,0-5,1.8-6.7L71,97.4c-2.5,1.3-5.3,2-8.1,2.2v7.5c1.2,0.3,2.3,0.9,3.1,1.7l0,0
		c2.5,2.5,2.5,6.6,0,9.1c0,0,0,0,0,0v0c-2.5,2.5-6.6,2.5-9.1,0c0,0,0,0,0,0v0c-2.5-2.5-2.5-6.6,0-9.1c0,0,0,0,0,0l0,0
		c0.9-0.9,2-1.5,3.1-1.7v-7.5c-2.8-0.2-5.6-0.9-8.1-2.2l-3.7,6.5c2.2,2,2.7,5.3,1.2,8l0,0c-1.8,3.1-5.7,4.1-8.8,2.4c0,0,0,0,0,0l0,0
		c-3.1-1.8-4.1-5.7-2.4-8.8c0,0,0,0,0,0l0,0c1.5-2.6,4.6-3.8,7.5-2.9l3.7-6.5c-2.3-1.6-4.4-3.6-5.9-5.9l-6.5,3.7
		c1.1,3.4-0.8,7-4.2,8.1c-3.4,1.1-7-0.8-8.1-4.2s0.8-7,4.2-8.1c2.4-0.7,5-0.1,6.7,1.8l6.5-3.7c-5.2-10.7-0.9-23.6,9.8-28.8
		C54.9,57.3,58.1,56.6,61.4,56.6L61.4,56.6z M74.7,64.9c7.3,7.3,7.3,19.1,0,26.4c-7.3,7.3-19.1,7.3-26.4,0c-7.3-7.3-7.3-19.1,0-26.4
		c3.5-3.5,8.3-5.5,13.2-5.5C66.4,59.4,71.2,61.4,74.7,64.9z M91,92.2c-0.9,0.2-1.7,0.9-2.2,1.7l0,0c-1,1.7-0.4,4,1.3,5s4,0.4,5-1.3
		c1-1.7,0.4-4-1.3-5l0,0C92.9,92.1,91.9,91.9,91,92.2z M80,105.1c-1.9-0.5-3.9,0.6-4.4,2.6c-0.5,1.9,0.6,3.9,2.6,4.4
		c1.9,0.5,3.9-0.6,4.4-2.6c0.2-0.9,0.1-1.9-0.4-2.7C81.7,105.9,80.9,105.3,80,105.1z M61.4,109.7c-1,0-1.9,0.4-2.6,1.1v0
		c-1.4,1.4-1.4,3.7,0,5.1l0,0c1.4,1.4,3.7,1.4,5.1,0l0,0c1.4-1.4,1.4-3.7,0-5.1v0C63.3,110.1,62.4,109.7,61.4,109.7z M45.6,105.4
		c-1.7-1-4-0.4-5,1.3s-0.4,4,1.3,5c1.7,1,4,0.4,5-1.3c0.5-0.8,0.6-1.8,0.4-2.8C47.1,106.7,46.5,105.9,45.6,105.4L45.6,105.4z"/>
</g>
</svg>
