<?xml version="1.0" encoding="utf-8"?>
<!-- Generator: Adobe Illustrator 24.3.0, SVG Export Plug-In . SVG Version: 6.00 Build 0)  -->
<svg version="1.1" id="Layer_1" xmlns="http://www.w3.org/2000/svg" xmlns:xlink="http://www.w3.org/1999/xlink" x="0px" y="0px"
	 viewBox="0 0 122.9 122.9" style="enable-background:new 0 0 122.9 122.9;" xml:space="preserve">
<style type="text/css">
	.st0{fill-rule:evenodd;clip-rule:evenodd;fill:url(#SVGID_1_);}
</style>
<g id="Layer_1-23">
	
		<linearGradient id="SVGID_1_" gradientUnits="userSpaceOnUse" x1="6.8077" y1="60.8155" x2="115.485" y2="60.8155" gradientTransform="matrix(1 0 0 -1 0 124)">
		<stop  offset="0" style="stop-color:#E11E25"/>
		<stop  offset="1" style="stop-color:#C71F25"/>
	</linearGradient>
	<path class="st0" d="M15.6,23.5v23.3h12.8c4.7-10.5,14.1-18.2,25.3-20.6l0.6,2.8C41.7,31.7,31.7,41.7,29,54.4l-2.8-0.6
		c0.3-1.4,0.7-2.8,1.2-4.1H12.8V23.5c-4-0.8-6.6-4.7-5.9-8.7s4.7-6.6,8.7-5.9s6.6,4.7,5.9,8.7C20.9,20.6,18.6,23,15.6,23.5z
		 M44.9,60.4l-1,1l8.1,8.1l2-2l-6.1-6.1l6.1-6.1l-2-2C52,53.4,44.9,60.4,44.9,60.4z M57.4,71.1L62.8,51l2.7,0.7l-5.4,20.1
		C60.1,71.9,57.4,71.1,57.4,71.1z M78,62.4l-7.1,7.1l-2-2l6.1-6.1l-6.1-6.1l2-2l8.1,8.1L78,62.4z M29,68.5
		c2.8,12.7,12.7,22.6,25.4,25.4l-0.6,2.8c-2.4-0.5-4.7-1.3-6.9-2.2v17.1H21.5c-0.8,4-4.7,6.6-8.7,5.9c-4-0.8-6.6-4.7-5.9-8.7
		s4.7-6.6,8.7-5.9c3,0.6,5.3,2.9,5.9,5.9h22.6V93c-5.3-2.9-9.7-7.1-13-12.1h-9.6c-0.8,4-4.7,6.6-8.7,5.9S6.2,82.1,7,78.1
		s4.7-6.6,8.7-5.9c3,0.6,5.3,2.9,5.9,5.9h8c-1.5-2.8-2.6-5.9-3.3-9L29,68.5L29,68.5z M68.5,93.9l0.6,2.8c9.3-2,17.5-7.7,22.7-15.7
		h14.9v21.9c-4,0.8-6.6,4.7-5.9,8.7c0.8,4,4.7,6.6,8.7,5.9c4-0.8,6.6-4.7,5.9-8.7c-0.6-3-2.9-5.3-5.9-5.9V78.1l-16.1,0
		c1.5-2.8,2.6-5.9,3.3-9l-2.8-0.6C91.1,81.2,81.2,91.1,68.5,93.9z M93.9,54.4l2.8-0.6c-0.3-1.4-0.7-2.8-1.2-4.1h5.3
		c0.8,4,4.7,6.6,8.7,5.9c4-0.8,6.6-4.7,5.9-8.7c-0.8-4-4.7-6.6-8.7-5.9c-3,0.6-5.3,2.9-5.9,5.9h-6.4c-3.3-7.4-9-13.5-16.2-17.3V17.7
		h22.6c0.8,4,4.7,6.6,8.7,5.9c4-0.8,6.6-4.7,5.9-8.7s-4.7-6.6-8.7-5.9c-3,0.6-5.3,2.9-5.9,5.9H75.4v13.3c-2-0.8-4.1-1.5-6.3-2
		L68.5,29C81.2,31.7,91.1,41.7,93.9,54.4L93.9,54.4z M60,32.8C45.3,33.6,33.6,45.3,32.8,60h-12v2.8h12C33.6,77.6,45.3,89.3,60,90v12
		h2.8V90C77.6,89.3,89.3,77.6,90,62.9h12V60H90c-0.7-14.7-12.5-26.5-27.2-27.2v-12H60C60,20.8,60,32.8,60,32.8z M111.3,13
		c1.8,1.8,1.8,4.7,0,6.5s-4.7,1.8-6.5,0c-1.8-1.8-1.8-4.7,0-6.5c0.9-0.9,2-1.3,3.2-1.3C109.3,11.7,110.5,12.2,111.3,13z M61.4,35.6
		c-14.2,0-25.8,11.5-25.8,25.7l0,0.1h0c0,14.2,11.6,25.8,25.8,25.8c0,0,0,0,0,0v0l0.1,0c14.2-0.1,25.7-11.6,25.7-25.8h0l0-0.1
		C87.2,47.2,75.7,35.7,61.4,35.6L61.4,35.6C61.4,35.6,61.4,35.6,61.4,35.6z M104.8,45c1.8-1.8,4.7-1.8,6.5,0c1.8,1.8,1.8,4.7,0,6.5
		c-1.8,1.8-4.7,1.8-6.5,0c-0.9-0.9-1.3-2-1.3-3.2C103.5,47,104,45.9,104.8,45z M11,76.3c-1.8,1.8-1.8,4.7,0,6.5
		c1.8,1.8,4.7,1.8,6.5,0s1.8-4.7,0-6.5c-0.9-0.9-2-1.3-3.2-1.3C13,74.9,11.8,75.4,11,76.3z M76.8,102.7c4.1,0,7.4,3.3,7.4,7.4
		c0,4.1-3.3,7.4-7.4,7.4c-4.1,0-7.4-3.3-7.4-7.4c0-2,0.8-3.9,2.2-5.2C72.9,103.5,74.8,102.7,76.8,102.7z M80,106.9
		c1.8,1.8,1.8,4.7,0,6.5c-1.8,1.8-4.7,1.8-6.5,0s-1.8-4.7,0-6.5c0.9-0.9,2-1.3,3.2-1.3C78,105.5,79.2,106,80,106.9z M45.5,8.8
		c-4.1,0-7.4,3.3-7.4,7.4c0,4.1,3.3,7.4,7.4,7.4s7.4-3.3,7.4-7.4c0-2-0.8-3.9-2.2-5.2C49.4,9.6,47.5,8.8,45.5,8.8z M48.7,13
		c-1.8-1.8-4.7-1.8-6.5,0s-1.8,4.7,0,6.5s4.7,1.8,6.5,0c0.9-0.9,1.3-2,1.3-3.2C50.1,15,49.6,13.9,48.7,13z M17.5,106.9
		c-1.8-1.8-4.7-1.8-6.5,0s-1.8,4.7,0,6.5c1.8,1.8,4.7,1.8,6.5,0c0.9-0.9,1.3-2,1.3-3.2C18.8,108.9,18.3,107.7,17.5,106.9z
		 M111.3,106.9c1.8,1.8,1.8,4.7,0,6.5s-4.7,1.8-6.5,0c-1.8-1.8-1.8-4.7,0-6.5c0.9-0.9,2-1.3,3.2-1.3
		C109.3,105.5,110.5,106,111.3,106.9z M17.5,13c-1.8-1.8-4.7-1.8-6.5,0s-1.8,4.7,0,6.5c1.8,1.8,4.7,1.8,6.5,0c0.9-0.9,1.3-2,1.3-3.2
		C18.8,15,18.3,13.9,17.5,13z"/>
</g>
</svg>
