<?xml version="1.0" encoding="utf-8"?>
<!-- Generator: Adobe Illustrator 24.3.0, SVG Export Plug-In . SVG Version: 6.00 Build 0)  -->
<svg version="1.1" id="Layer_1" xmlns="http://www.w3.org/2000/svg" xmlns:xlink="http://www.w3.org/1999/xlink" x="0px" y="0px"
	 viewBox="0 0 122.9 122.9" style="enable-background:new 0 0 122.9 122.9;" xml:space="preserve">
<style type="text/css">
	.st0{fill-rule:evenodd;clip-rule:evenodd;fill:url(#SVGID_1_);}
</style>
<g id="Layer_1-14">
	
		<linearGradient id="SVGID_1_" gradientUnits="userSpaceOnUse" x1="3.8613" y1="62.5597" x2="119.0188" y2="62.5597" gradientTransform="matrix(1 0 0 -1 0 124)">
		<stop  offset="0" style="stop-color:#E11E25"/>
		<stop  offset="1" style="stop-color:#C71F25"/>
	</linearGradient>
	<path class="st0" d="M61.4,63.3l-11.7-6.8c-0.5-0.3-0.9-0.7-1.1-1.3c-0.3-0.8-0.5-1.7-0.5-2.5V35.3c4.7-0.6,9.3-2.2,13.2-4.8
		c4,2.6,8.5,4.3,13.2,4.8v17.3c0,0.9-0.1,1.7-0.5,2.5c-0.2,0.5-0.6,1-1.1,1.3C73.1,56.5,61.4,63.3,61.4,63.3z M77.5,30.2
		c-8.9-8.9-23.3-8.9-32.2,0s-8.9,23.3,0,32.2s23.3,8.9,32.2,0c4.3-4.3,6.7-10,6.7-16.1C84.2,40.2,81.8,34.4,77.5,30.2z M31.6,80.7
		L31.6,80.7c1.8,1.8,1.8,4.7,0,6.5l0,0c-1.8,1.8-4.7,1.8-6.5,0l0,0c-1.8-1.8-1.8-4.7,0-6.5l0,0C26.9,78.9,29.8,78.9,31.6,80.7z
		 M14.5,64.4L14.5,64.4c1.8,1.8,1.8,4.7,0,6.5l0,0c-1.8,1.8-4.7,1.8-6.5,0l0,0c-1.8-1.8-1.8-4.7,0-6.5l0,0
		C9.8,62.7,12.7,62.7,14.5,64.4z M18.5,66.1l20-8.5c1.2,2.5,2.9,4.8,4.8,6.7l0.1,0.1L32,77.5c-2.5-1.4-5.6-1.3-8,0.4l-6.5-6.2
		C18.6,70,18.9,68,18.5,66.1L18.5,66.1z M14.5,34.8L14.5,34.8c1.8,1.8,1.8,4.7,0,6.5l0,0c-1.8,1.8-4.7,1.8-6.5,0l0,0
		c-1.8-1.8-1.8-4.7,0-6.5l0,0C9.8,33,12.7,33,14.5,34.8z M18.2,40.7c-0.4,1-0.9,1.8-1.7,2.6l0,0c-1,1-2.4,1.8-3.8,2v15.1
		c1.4,0.3,2.8,1,3.8,2l0,0c0.3,0.3,0.6,0.7,0.9,1.1l20-8.5c-1-2.8-1.5-5.8-1.5-8.7c0-0.8,0-1.6,0.1-2.4C36,43.8,18.2,40.7,18.2,40.7
		z M23.3,15.5L23.3,15.5c1.8,1.8,1.8,4.7,0,6.5l0,0c-1.8,1.8-4.7,1.8-6.5,0l0,0c-1.8-1.8-1.8-4.7,0-6.5l0,0
		C18.6,13.7,21.5,13.7,23.3,15.5z M25.3,24l13.9,9.6c-1.3,2.3-2.2,4.8-2.8,7.4l-17.7-3.1c0-1.9-0.8-3.7-2.2-5.1l0,0
		c-0.3-0.3-0.6-0.6-0.9-0.8l2.8-6.1C20.8,26.5,23.4,25.8,25.3,24z M50,6.8L50,6.8c1.8,1.8,1.8,4.7,0,6.5l0,0c-1.8,1.8-4.7,1.8-6.5,0
		l0,0c-1.8-1.8-1.8-4.7,0-6.5l0,0C45.3,5.1,48.2,5.1,50,6.8z M83.9,6.8L83.9,6.8c1.8,1.8,1.8,4.7,0,6.5l0,0c-1.8,1.8-4.7,1.8-6.5,0
		l0,0c-1.8-1.8-1.8-4.7,0-6.5l0,0C79.2,5.1,82.1,5.1,83.9,6.8z M76,15.9c-0.2-0.2-0.4-0.3-0.6-0.5l0,0c-1-1-1.8-2.4-2-3.8H54
		c-0.3,1.4-1,2.8-2,3.8l0,0c-0.4,0.4-0.8,0.7-1.2,1l2.3,5.8c6.2-2.1,13.1-1.8,19.1,1L76,15.9L76,15.9z M113.7,31.6L113.7,31.6
		c1.8,1.8,1.8,4.7,0,6.5l0,0c-1.8,1.8-4.7,1.8-6.5,0l0,0c-1.8-1.8-1.8-4.7,0-6.5l0,0C109,29.8,111.9,29.8,113.7,31.6z M103,35.1
		l-17,4c-1.8-6.1-5.8-11.4-11.3-14.7l3.8-7.2c2.4,0.7,4.9,0.2,6.9-1.4l18.6,15.4c-0.6,1.1-0.9,2.3-0.9,3.6C103,34.9,103,35,103,35.1
		z M114.8,66L114.8,66c1.8,1.8,1.8,4.7,0,6.5l0,0c-1.8,1.8-4.7,1.8-6.5,0l0,0c-1.8-1.8-1.8-4.7,0-6.5l0,0
		C110.2,64.2,113,64.2,114.8,66z M105.5,65c0.2-0.4,0.5-0.7,0.8-1l0,0c1-1,2.2-1.7,3.6-2l-0.7-19.8c-1.5-0.2-3-1-4.1-2.1l0,0
		c-0.6-0.6-1.2-1.4-1.5-2.2l-17,4c0.8,4.7,0.3,9.6-1.5,14.1C85.1,55.9,105.5,65,105.5,65z M95.9,84.1L95.9,84.1
		c1.8,1.8,1.8,4.7,0,6.5l0,0c-1.8,1.8-4.7,1.8-6.5,0l0,0c-1.8-1.8-1.8-4.7,0-6.5l0,0C91.2,82.3,94.1,82.3,95.9,84.1z M92.7,79.9
		c-1.2,0-2.3,0.3-3.4,0.8L77.7,66c0.6-0.5,1.3-1.1,1.8-1.7c1.7-1.7,3.2-3.7,4.4-5.9l20.5,9.1c-0.5,1.9-0.1,4,1,5.7l-8.4,8
		C95.7,80.4,94.2,79.9,92.7,79.9L92.7,79.9z M95.9,109.5L95.9,109.5c1.8,1.8,1.8,4.7,0,6.5l0,0c-1.8,1.8-4.7,1.8-6.5,0l0,0
		c-1.8-1.8-1.8-4.7,0-6.5l0,0C91.2,107.8,94.1,107.8,95.9,109.5z M64.9,84.1L64.9,84.1c1.8,1.8,1.8,4.7,0,6.5l0,0
		c-1.8,1.8-4.7,1.8-6.5,0l0,0c-1.8-1.8-1.8-4.7,0-6.5l0,0C60.2,82.3,63.1,82.3,64.9,84.1z M54.6,85.2l-18.9-1.9
		c-0.1-1.4-0.7-2.8-1.6-3.9l11.4-13.1c4.1,3.3,9.1,5.2,14.4,5.5l0.2,8.3c-1.4,0.3-2.7,1-3.7,2l0,0C55.6,82.9,54.9,84,54.6,85.2z
		 M68.9,88.7c-0.1,0.7-0.4,1.5-0.8,2.1L88,107.1c1-0.8,2.1-1.3,3.3-1.6V94.6c-1.4-0.3-2.8-1-3.8-2l0,0c-1-1-1.8-2.4-2-3.8H68.9z
		 M62.9,80l-0.2-8.2c4.5-0.2,8.9-1.6,12.7-4.1l11.7,14.8c-0.8,1-1.4,2.2-1.7,3.4H68.9c-0.3-1.4-1-2.8-2-3.8l0,0
		C65.8,81,64.4,80.3,62.9,80L62.9,80z M40.2,13.7l-12.8,4.1c0.2,1.3,0,2.7-0.6,3.9l13.8,9.6c2.5-3.5,5.9-6.3,9.8-8.1l-2.3-5.8
		c-2.4,0.5-4.9-0.3-6.7-2l0,0C41,14.8,40.6,14.3,40.2,13.7z M26.6,15.1c-0.3-0.6-0.8-1.2-1.2-1.7l0,0c-2.9-2.9-7.6-2.9-10.5,0
		c0,0,0,0,0,0l0,0c-2.9,2.9-2.9,7.6,0,10.5c0,0,0,0,0,0l0,0c0.3,0.3,0.6,0.6,0.9,0.8L13,30.8c-2.5-0.6-5.1,0.1-7,2l0,0
		c-2.9,2.9-2.9,7.6,0,10.5c0,0,0,0,0,0l0,0c1,1,2.4,1.8,3.8,2v15.1c-1.4,0.3-2.8,1-3.8,2l0,0C3.1,65.3,3.1,70,6,72.9c0,0,0,0,0,0
		l0,0c2.6,2.6,6.6,2.9,9.5,0.8l6.5,6.2c-1.9,2.9-1.5,6.8,1,9.2l0,0c2.9,2.9,7.6,2.9,10.5,0c0,0,0,0,0,0l0,0c0.9-0.9,1.5-1.9,1.9-3.1
		L54.3,88c0.2,1.7,0.9,3.3,2.1,4.6l0,0c2.7,2.7,7,2.9,10,0.5l19.8,16.2c-1.6,2.9-1,6.5,1.3,8.8l0,0c2.9,2.9,7.6,2.9,10.5,0
		c0,0,0,0,0,0l0,0c2.9-2.9,2.9-7.6,0-10.5c0,0,0,0,0,0l0,0c-1-1-2.4-1.8-3.8-2V94.6c1.4-0.3,2.8-1,3.8-2l0,0c2.5-2.5,2.9-6.3,1-9.2
		l8.4-8c2.9,2.1,7,1.8,9.5-0.8l0,0c2.9-2.9,2.9-7.6,0-10.5c0,0,0,0,0,0l0,0c-1.1-1.1-2.5-1.8-4.1-2.1l-0.7-19.8c1.4-0.3,2.6-1,3.6-2
		l0,0c2.9-2.9,2.9-7.6,0-10.5c0,0,0,0,0,0l0,0c-2.7-2.7-7-2.9-9.9-0.5L87.2,13.7c1.6-2.9,1.1-6.5-1.3-8.8l0,0
		C83,2,78.3,1.9,75.5,4.8c0,0,0,0,0,0l0,0c-1,1-1.8,2.4-2,3.8H54c-0.3-1.4-1-2.8-2-3.8l0,0c-2.9-2.9-7.6-2.9-10.5,0c0,0,0,0,0,0l0,0
		c-1.6,1.6-2.4,3.9-2.1,6.1C39.4,11,26.6,15.1,26.6,15.1z M62.9,59.2l8.8-5.1l0,0c0.1-0.2,0.1-0.3,0.1-0.5c0-0.3,0.1-0.6,0.1-0.9v-5
		h-6.5v-2.8h6.5v-7.1c-1.8-0.3-3.5-0.8-5.1-1.4c-1.3-0.5-2.6-1-3.8-1.7v7.7H60v-7.7c-1.2,0.6-2.5,1.2-3.8,1.7
		c-1.7,0.6-3.4,1.1-5.1,1.4v7.1h6.5v2.8H51v5c0,0.3,0,0.6,0.1,0.9c0,0.2,0.1,0.3,0.1,0.5l0,0l8.8,5.1v-8.9h2.8V59.2z"/>
</g>
</svg>
